<svg width="49" height="49" viewBox="0 0 49 49" fill="none" xmlns="http://www.w3.org/2000/svg">
<path d="M24.6605 48.4349C37.9846 48.4349 48.7859 37.6325 48.7859 24.3071C48.7859 10.9816 37.9846 0.179199 24.6605 0.179199C11.3365 0.179199 0.535156 10.9816 0.535156 24.3071C0.535156 37.6325 11.3365 48.4349 24.6605 48.4349Z" fill="#F5F5F5"/>
<path d="M19.7853 38.2041C31.5691 38.2041 38.0133 28.4422 38.0133 19.9742C38.0133 19.6954 38.0061 19.4201 37.9954 19.1449C39.2464 18.2406 40.3329 17.111 41.1907 15.8278C40.0434 16.3389 38.8067 16.6821 37.5129 16.8358C38.8353 16.0422 39.8504 14.7876 40.3293 13.2935C39.0927 14.0262 37.7202 14.5624 36.262 14.8484C35.0932 13.6044 33.4277 12.8252 31.587 12.8252C28.0486 12.8252 25.1786 15.6955 25.1786 19.2307C25.1786 19.7347 25.2358 20.2208 25.3466 20.6927C20.0211 20.4246 15.2997 17.876 12.1438 13.9976C11.5934 14.9449 11.2753 16.0458 11.2753 17.2183C11.2753 19.4416 12.4047 21.404 14.1274 22.5514C13.0766 22.5192 12.0902 22.2297 11.2252 21.7507C11.2252 21.7757 11.2252 21.8043 11.2252 21.8329C11.2252 24.9356 13.434 27.5271 16.3648 28.1133C15.8251 28.2599 15.2604 28.3385 14.6778 28.3385C14.2668 28.3385 13.8629 28.2992 13.4733 28.2241C14.2882 30.7692 16.6543 32.6208 19.4564 32.6744C17.2619 34.3937 14.5027 35.416 11.5004 35.416C10.9822 35.416 10.4747 35.3874 9.9707 35.3267C12.805 37.1425 16.1718 38.2041 19.7888 38.2041" fill="#01764A"/>
</svg>
