<svg width="49" height="49" viewBox="0 0 49 49" fill="none" xmlns="http://www.w3.org/2000/svg">
<path d="M24.4222 48.4349C37.7463 48.4349 48.5476 37.6325 48.5476 24.3071C48.5476 10.9816 37.7463 0.179199 24.4222 0.179199C11.0982 0.179199 0.296875 10.9816 0.296875 24.3071C0.296875 37.6325 11.0982 48.4349 24.4222 48.4349Z" fill="#F5F5F5"/>
<path d="M24.4221 11.8533C28.4788 11.8533 28.9577 11.8676 30.5589 11.9427C32.0386 12.0106 32.8428 12.2572 33.3789 12.4645C34.0866 12.7398 34.5941 13.0686 35.1266 13.6012C35.6592 14.1338 35.988 14.6378 36.2632 15.3492C36.4705 15.8853 36.7171 16.6896 36.785 18.1694C36.8565 19.7708 36.8744 20.2534 36.8744 24.3069C36.8744 28.3603 36.8601 28.8429 36.785 30.4443C36.7171 31.9241 36.4705 32.7284 36.2632 33.2645C35.988 33.9723 35.6592 34.4799 35.1266 35.0125C34.5941 35.5451 34.0901 35.8739 33.3789 36.1492C32.8428 36.3565 32.0386 36.6031 30.5589 36.671C28.9577 36.7425 28.4788 36.7604 24.4221 36.7604C20.3655 36.7604 19.8866 36.7461 18.2854 36.671C16.8057 36.6031 16.0015 36.3565 15.4654 36.1492C14.7577 35.8739 14.2502 35.5451 13.7176 35.0125C13.1851 34.4799 12.8563 33.9759 12.581 33.2645C12.3737 32.7284 12.1271 31.9241 12.0592 30.4443C11.9877 28.8429 11.9699 28.3603 11.9699 24.3069C11.9699 20.2534 11.9842 19.7708 12.0592 18.1694C12.1271 16.6896 12.3737 15.8853 12.581 15.3492C12.8563 14.6414 13.1851 14.1338 13.7176 13.6012C14.2502 13.0686 14.7541 12.7398 15.4654 12.4645C16.0015 12.2572 16.8057 12.0106 18.2854 11.9427C19.8866 11.8712 20.3691 11.8533 24.4221 11.8533ZM24.4221 9.11523C20.2976 9.11523 19.7793 9.13311 18.1603 9.20817C16.5448 9.28324 15.4403 9.53703 14.4718 9.91592C13.4746 10.3055 12.6275 10.8238 11.7804 11.6674C10.9369 12.511 10.4151 13.3582 10.0291 14.359C9.65384 15.3241 9.3965 16.4287 9.32144 18.0479C9.24639 19.6672 9.22852 20.1855 9.22852 24.3104C9.22852 28.4354 9.24639 28.9537 9.32144 30.573C9.3965 32.1886 9.65026 33.2931 10.0291 34.2618C10.4187 35.2591 10.9369 36.1063 11.7804 36.9534C12.6239 37.797 13.471 38.3189 14.4718 38.7049C15.4368 39.0803 16.5412 39.3376 18.1603 39.4127C19.7793 39.4878 20.2976 39.5056 24.4221 39.5056C28.5467 39.5056 29.0649 39.4878 30.684 39.4127C32.2995 39.3376 33.4039 39.0838 34.3725 38.7049C35.3697 38.3153 36.2167 37.797 37.0638 36.9534C37.9073 36.1098 38.4291 35.2627 38.8151 34.2618C39.1904 33.2967 39.4478 32.1922 39.5228 30.573C39.5979 28.9537 39.6157 28.4354 39.6157 24.3104C39.6157 20.1855 39.5979 19.6672 39.5228 18.0479C39.4478 16.4322 39.194 15.3277 38.8151 14.359C38.4256 13.3617 37.9073 12.5146 37.0638 11.6674C36.2203 10.8238 35.3732 10.302 34.3725 9.91592C33.4075 9.5406 32.3031 9.28324 30.684 9.20817C29.0649 9.13311 28.5467 9.11523 24.4221 9.11523Z" fill="#01764A"/>
<path d="M24.4223 16.5073C20.1155 16.5073 16.6235 19.9996 16.6235 24.3069C16.6235 28.6142 20.1155 32.1064 24.4223 32.1064C28.7291 32.1064 32.221 28.6142 32.221 24.3069C32.221 19.9996 28.7291 16.5073 24.4223 16.5073ZM24.4223 29.3719C21.6273 29.3719 19.3577 27.1057 19.3577 24.3069C19.3577 21.508 21.6237 19.2418 24.4223 19.2418C27.2208 19.2418 29.4868 21.508 29.4868 24.3069C29.4868 27.1057 27.2208 29.3719 24.4223 29.3719Z" fill="#01764A"/>
<path d="M32.5318 18.0195C33.5385 18.0195 34.3546 17.2033 34.3546 16.1965C34.3546 15.1897 33.5385 14.3735 32.5318 14.3735C31.5251 14.3735 30.709 15.1897 30.709 16.1965C30.709 17.2033 31.5251 18.0195 32.5318 18.0195Z" fill="#01764A"/>
</svg>
