<svg width="49" height="49" viewBox="0 0 49 49" fill="none" xmlns="http://www.w3.org/2000/svg">
<path d="M24.5433 48.4349C37.8674 48.4349 48.6687 37.6325 48.6687 24.3071C48.6687 10.9816 37.8674 0.179199 24.5433 0.179199C11.2193 0.179199 0.417969 10.9816 0.417969 24.3071C0.417969 37.6325 11.2193 48.4349 24.5433 48.4349Z" fill="#F5F5F5"/>
<path fill-rule="evenodd" clip-rule="evenodd" d="M36.1486 12.9972C33.2607 10.1055 29.4149 8.51123 25.3226 8.51123C16.8876 8.51123 10.0217 15.3743 10.0182 23.8101C10.0182 26.5053 10.7223 29.1397 12.0626 31.4595L9.89307 39.3878L18.0063 37.2609C20.2402 38.4798 22.7599 39.1232 25.319 39.1232H25.3261C33.7611 39.1232 40.627 32.2602 40.6306 23.8208C40.6306 19.7316 39.0401 15.889 36.1522 12.9972H36.1486ZM25.3226 36.5389H25.319C23.0351 36.5389 20.7977 35.9241 18.8463 34.7659L18.3816 34.4907L13.5673 35.7525L14.854 31.0592L14.5502 30.5766C13.2778 28.5534 12.6058 26.2121 12.6058 23.8101C12.6058 16.7969 18.3137 11.092 25.3333 11.092C28.7323 11.092 31.924 12.4182 34.3258 14.8202C36.7276 17.2259 38.05 20.4179 38.0465 23.8172C38.0465 30.8304 32.3386 36.5353 25.3261 36.5353L25.3226 36.5389ZM32.2993 27.0128C31.9168 26.8198 30.0368 25.8976 29.6866 25.7689C29.3363 25.6402 29.0826 25.5759 28.8252 25.9619C28.5715 26.3444 27.8388 27.2059 27.6136 27.4596C27.392 27.7134 27.1668 27.7456 26.7844 27.5562C26.402 27.3631 25.1689 26.9628 23.7106 25.6581C22.5741 24.6429 21.8056 23.3919 21.584 23.0094C21.3624 22.6269 21.559 22.4196 21.752 22.2302C21.9236 22.0586 22.1344 21.7833 22.3239 21.5617C22.5133 21.3401 22.5776 21.1793 22.7063 20.9255C22.835 20.6717 22.7706 20.4465 22.6741 20.257C22.5776 20.064 21.8128 18.1838 21.4947 17.4189C21.1837 16.6718 20.8692 16.7755 20.6333 16.7612C20.4117 16.7505 20.1544 16.7469 19.9006 16.7469C19.6469 16.7469 19.2323 16.8434 18.882 17.2259C18.5317 17.6083 17.5453 18.5341 17.5453 20.4143C17.5453 22.2945 18.9142 24.1139 19.1072 24.3677C19.2966 24.6215 21.8021 28.4855 25.6407 30.1405C26.5521 30.5337 27.2669 30.7696 27.8209 30.9448C28.7359 31.2343 29.5722 31.195 30.2298 31.0949C30.9661 30.9841 32.4923 30.1691 32.8104 29.2755C33.1285 28.3819 33.1285 27.6169 33.032 27.4561C32.9355 27.2952 32.6817 27.2023 32.2993 27.0093V27.0128Z" fill="#01764A"/>
</svg>
